<?xml version="1.0" encoding="utf-8"?><svg xmlns="http://www.w3.org/2000/svg" xmlns:xlink="http://www.w3.org/1999/xlink"><symbol viewBox="0 0 256 295" preserveAspectRatio="xMinYMin meet" id="svg--bitbucket" xmlns="http://www.w3.org/2000/svg"><g fill="#205081"><path d="M128 0C57.732 0 .012 18.822.012 42.663c0 6.274 15.057 95.364 21.331 130.498 2.51 16.312 43.918 38.898 106.657 38.898 62.74 0 102.893-22.586 106.657-38.898 6.274-35.134 21.331-124.224 21.331-130.498C254.734 18.822 198.268 0 128 0zm0 183.199c-22.586 0-40.153-17.567-40.153-40.153s17.567-40.153 40.153-40.153 40.153 17.567 40.153 40.153c0 21.331-17.567 40.153-40.153 40.153zm0-127.988c-45.172 0-81.561-7.53-81.561-17.567 0-10.039 36.389-17.567 81.561-17.567 45.172 0 81.561 7.528 81.561 17.567 0 10.038-36.389 17.567-81.561 17.567z"/><path d="M220.608 207.04c-2.51 0-3.764 1.255-3.764 1.255s-31.37 25.096-87.835 25.096c-56.466 0-87.835-25.096-87.835-25.096s-2.51-1.255-3.765-1.255c-2.51 0-5.019 1.255-5.019 5.02v1.254c5.02 26.35 8.784 45.172 8.784 47.682 3.764 18.822 41.408 33.88 86.58 33.88s82.816-15.058 86.58-33.88c0-2.51 3.765-21.332 8.784-47.682v-1.255c1.255-2.51 0-5.019-2.51-5.019z"/><circle cx="128" cy="141.791" r="20.077"/></g></symbol><symbol viewBox="0 0 1024 1024" id="svg--github" xmlns="http://www.w3.org/2000/svg"><path d="M512 0C229.25 0 0 229.25 0 512c0 226.25 146.688 418.125 350.156 485.812 25.594 4.688 34.938-11.125 34.938-24.625 0-12.188-.469-52.562-.719-95.312C242 908.812 211.906 817.5 211.906 817.5c-23.312-59.125-56.844-74.875-56.844-74.875-46.531-31.75 3.53-31.125 3.53-31.125 51.406 3.562 78.47 52.75 78.47 52.75 45.688 78.25 119.875 55.625 149 42.5 4.654-33 17.904-55.625 32.5-68.375-113.656-12.937-233.218-56.875-233.218-253.063 0-55.938 19.969-101.562 52.656-137.406-5.219-13-22.844-65.094 5.062-135.562 0 0 42.938-13.75 140.812 52.5 40.812-11.406 84.594-17.031 128.125-17.219 43.5.188 87.312 5.875 128.188 17.281 97.688-66.312 140.688-52.5 140.688-52.5 28 70.531 10.375 122.562 5.125 135.5 32.812 35.844 52.625 81.469 52.625 137.406 0 196.688-119.75 240-233.812 252.688 18.438 15.875 34.75 47 34.75 94.75 0 68.438-.688 123.625-.688 140.5 0 13.625 9.312 29.562 35.25 24.562C877.438 930 1024 738.125 1024 512 1024 229.25 794.75 0 512 0z"/></symbol><symbol viewBox="0 0 210 194" id="svg--gitlab" xmlns="http://www.w3.org/2000/svg"><title>Group</title><g fill="none" fill-rule="evenodd"><path d="M105.061 193.655l38.64-118.921h-77.28l38.64 118.921z" fill="#E24329"/><path d="M105.061 193.655L66.421 74.734H12.268l92.793 118.92z" fill="#FC6D26"/><path d="M12.268 74.734L.526 110.874a8 8 0 0 0 2.907 8.943l101.628 73.838-92.793-118.92z" fill="#FCA326"/><path d="M12.268 74.734h54.153L43.148 3.11c-1.197-3.686-6.41-3.685-7.608 0L12.27 74.734z" fill="#E24329"/><path d="M105.061 193.655l38.64-118.921h54.153l-92.793 118.92z" fill="#FC6D26"/><path d="M197.854 74.734l11.742 36.14a8 8 0 0 1-2.906 8.943l-101.629 73.838 92.793-118.92z" fill="#FCA326"/><path d="M197.854 74.734h-54.153L166.974 3.11c1.197-3.686 6.411-3.685 7.608 0l23.272 71.625z" fill="#E24329"/></g></symbol></svg>